<?xml version="1.0" encoding="UTF-8"?>
<svg id="Layer_1" data-name="Layer 1" xmlns="http://www.w3.org/2000/svg" width="214.83" height="91.33" viewBox="0 0 214.83 91.33">
  <defs>
    <style>
      .cls-1 {
        fill-rule: evenodd;
      }
    </style>
  </defs>
  <path class="cls-1" d="m127.59,24.84l.49,2.27c.03.14.16.22.3.19l5.13-1.14c.14-.03.22-.16.19-.3l-1.21-5.11c-.02-.07,0-.14.03-.2l.5-.77c.06-.1.11-.2.14-.31l.6-2.76c.02-.07.08-.12.15-.12l14.19.02c.2,0,.35-.15.35-.35v-2.41s.04-.08.08-.08h5.47c.1,0,.18-.08.18-.18v-1.09c0-.1-.08-.18-.18-.18h-5.47,0s-.08-.03-.08-.07c0-.25,0-1.03.01-1.42v-.2c0-.29-.2-.51-.45-.51-.14,0-.27.08-.36.2-.02.03-.17.25-.35.51-.17.25-.37.54-.52.76-.02.02-.04.04-.07.04h-24.9c-.1,0-.18-.08-.18-.18l-.05-.67c0-.11.1-.2.21-.18l1.27.12c.11,0,.21-.06.24-.17l.93-3.76c.02-.09-.03-.18-.11-.21l-.86-.32s-.09-.06-.1-.11c-.16-.66-1.43-5.04-7.58-6.02-2.99-.48-4.95.8-5.99,1.82-.46.45-.85.98-1.15,1.56l-.37.81c-.03.06-.17.82-.17.89l.19,3.73c0,.13.06.25.16.33l1.35.58-.74,1.23c-.03.09-.11.15-.2.15,0,0-1.59.04-2.37.07-1.47.06-4.73,1.85-7.14,7-2.36,5.05-2.75,5.9-2.75,5.9-.05.1-.15.16-.26.15h-2.2c-.14,0-.28.12-.34.24l-3.41,9.68c-.06.12-.02.31.07.41l2.38,1.49c.07.06.09.14.07.22l-1.24,3.68c-.02.08-.05.16-.09.24l-1.65,1.46s-.08.08-.1.14c-.01.03-.02.06-.03.09l-2.27,5.83c-.03.1-.12.17-.23.17h-1.27c-.32,0-.59.25-.62.57l-.76,8.71c-.02.15-.03.31-.06.46l-.6,3.46c-.02.08-.07.15-.13.21l-2.12,1.62c-.97.93-2.28,2.63-2.91,3.81l-7.07,14.93c-.17.32-.31.86-.3,1.23l.5.9c0,.32-.12,1.73-.27,2.02l-2.37,4.14c-.05.1-.06.22-.01.33l.12.27.35.71h7.19c.45.05.94-.52.95-1.13l.39-4.93-.1-.74,13.71-16.1c.36-.44.84-1.21,1.09-1.72l6.53-14.42c.08-.16.21-.28.38-.33l.41-.13c.25-.08.53,0,.69.2.35.42.98,1.43,1.58,2.38.38.6.74,1.18.99,1.55.54.79,3.23,4.68,4.4,5.96.21.23.73.49,1.18.71.23.11.44.22.59.31.15.09.19.28.11.43l-3.91,6.88-1.73,8.13c-.06.19-.11.38-.14.58l-1.56,5.64c0,.35-.13.62-.27.91-.14.29-.29.59-.31,1.02l-.57,4.12c0,.13.09.23.22.23l9.67.05h0s.68,0,1.08-.03c.08,0,.2-.02.29-.03,1.29-.16,2.17-.34,2.77-.54.03,0,.05-.02.08-.03.42-.15.69-.31.86-.49.33-.34.71-.77.77-1.31v-.06s0-.03,0-.04v-.09h0s0-.07,0-.09c-.01-.11-.04-.19-.07-.26h0s0,0,0,0c0-.01-.01-.03-.02-.04,0,0,0-.01-.01-.02,0-.01-.01-.02-.02-.03-.05-.08-.11-.11-.12-.11-.03-.02-.05-.03-.08-.04l-4.49-1.36c-.29-.09-.54-.27-.72-.51l-1.21-1.78c-.06-.12-.03-.27.07-.37l2.35-2.32c.08-.08.14-.17.18-.27l7.23-17.08c.34-1.08.23-2.3,0-3.59-.14-.8-1.86-3.78-2.8-5.4-.18-.32-.34-.59-.45-.78-.56-1-4.06-7.12-4.89-8.57-.1-.16-.22-.31-.37-.42-.11-.08-.22-.17-.31-.28-.09-.1-.15-.22-.19-.36l-.28-4.25c-.02-.09.04-.19.14-.19l1.26-.11c.12-.01.23-.08.28-.19l4.36-8.2c.06-.11.06-.25,0-.36l-.89-1.11c-.06-.1-.06-.23,0-.33l1.34-1.44c.05-.1.18-.13.28-.08l3.55,2c.22.12.46.19.71.19.98,0,2.61-.59,3.45-1.11.22-.14.41-.33.53-.56l1.74-4.07c.02-.05.1-.04.11.01Z"/>
  <polygon class="cls-1" points="53.11 81.58 53.12 81.58 53.11 81.58 53.11 81.58"/>
  <path class="cls-1" d="m28.45,40.9l-6.45-3.05h48.85c2,0,3.81-1.2,4.6-3.04l4.12-9.65h-47.44c-7.98,0-15.2,4.75-18.36,12.08L.81,67.67c-2.81,6.59,2.03,13.91,9.2,13.91h42.18c2,0,3.81-1.2,4.59-3.04l4.19-9.82H16.58l11.87-27.83Z"/>
  <path class="cls-1" d="m163.48,25.09c-8.03,0-15.27,4.8-18.4,12.18l-2.09,4.94-1.49,3.52c-2.8,6.59,2.04,13.9,9.2,13.9h33.68s-3.85,9.02-3.85,9.02h-45.48c-2,0-3.8,1.19-4.59,3.03l-4.23,9.83h51.35c8.01,0,15.24-4.78,18.39-12.14l3.76-8.81c2.81-6.59-2.02-13.92-9.2-13.92h-33.63l2.47-5.81-6.28-3.05h53.06c2,0,3.82-1.2,4.6-3.04l4.09-9.64h-51.35Z"/>
</svg>